REM DIRINDEX 1\2,1\3,1\4,1\5
REM DIRNAME "folder01","folder02","folder03","folder04","folder05"
TITLE ""
FILE "P1Q_t_0989-0998.mp3" MP3
  TRACK 01 AUDIO
    TITLE "3:cjc173_3919"
    INDEX 01 00:00:00
  TRACK 02 AUDIO
    TITLE "0:"
    INDEX 01 00:01:27
  TRACK 03 AUDIO
    TITLE "4:cjc173_3920"
    INDEX 01 00:01:49
  TRACK 04 AUDIO
    TITLE "0:"
    INDEX 01 00:04:10
  TRACK 05 AUDIO
    TITLE "5:cjc173_3921"
    INDEX 01 00:04:30
  TRACK 06 AUDIO
    TITLE "0:"
    INDEX 01 00:08:47
  TRACK 07 AUDIO
    TITLE "3:cjc173_3922"
    INDEX 01 00:09:17
  TRACK 08 AUDIO
    TITLE "0:"
    INDEX 01 00:10:42
  TRACK 09 AUDIO
    TITLE "4:cjc173_3923"
    INDEX 01 00:10:66
  TRACK 10 AUDIO
    TITLE "0:"
    INDEX 01 00:14:44
  TRACK 11 AUDIO
    TITLE "5:cjc173_3924"
    INDEX 01 00:14:63
  TRACK 12 AUDIO
    TITLE "0:"
    INDEX 01 00:20:25
  TRACK 13 AUDIO
    TITLE "3:cjc173_3925"
    INDEX 01 00:20:72
  TRACK 14 AUDIO
    TITLE "0:"
    INDEX 01 00:22:16
  TRACK 15 AUDIO
    TITLE "4:cjc173_3926"
    INDEX 01 00:22:35
  TRACK 16 AUDIO
    TITLE "0:"
    INDEX 01 00:27:07
  TRACK 17 AUDIO
    TITLE "5:cjc173_3927"
    INDEX 01 00:27:27
  TRACK 18 AUDIO
    TITLE "0:"
    INDEX 01 00:32:38
  TRACK 19 AUDIO
    TITLE "3:cjc173_3928"
    INDEX 01 00:33:10
  TRACK 20 AUDIO
    TITLE "0:"
    INDEX 01 00:34:39
  TRACK 21 AUDIO
    TITLE "4:cjc173_3929"
    INDEX 01 00:34:60
  TRACK 22 AUDIO
    TITLE "0:"
    INDEX 01 00:41:37
  TRACK 23 AUDIO
    TITLE "5:cjc173_3930"
    INDEX 01 00:41:56
  TRACK 24 AUDIO
    TITLE "0:"
    INDEX 01 00:46:24
  TRACK 25 AUDIO
    TITLE "3:cjc173_3931"
    INDEX 01 00:46:69
  TRACK 26 AUDIO
    TITLE "0:"
    INDEX 01 00:48:19
  TRACK 27 AUDIO
    TITLE "4:cjc173_3932"
    INDEX 01 00:48:41
  TRACK 28 AUDIO
    TITLE "0:"
    INDEX 01 00:51:25
  TRACK 29 AUDIO
    TITLE "5:cjc173_3933"
    INDEX 01 00:51:45
  TRACK 30 AUDIO
    TITLE "0:"
    INDEX 01 00:57:40
  TRACK 31 AUDIO
    TITLE "3:cjc173_3934"
    INDEX 01 00:58:12
  TRACK 32 AUDIO
    TITLE "0:"
    INDEX 01 00:59:46
  TRACK 33 AUDIO
    TITLE "4:cjc173_3935"
    INDEX 01 00:59:70
  TRACK 34 AUDIO
    TITLE "0:"
    INDEX 01 01:02:21
  TRACK 35 AUDIO
    TITLE "5:cjc173_3936"
    INDEX 01 01:02:39
  TRACK 36 AUDIO
    TITLE "0:"
    INDEX 01 01:07:15
  TRACK 37 AUDIO
    TITLE "3:cjc173_3937"
    INDEX 01 01:07:64
  TRACK 38 AUDIO
    TITLE "0:"
    INDEX 01 01:09:35
  TRACK 39 AUDIO
    TITLE "4:cjc173_3938"
    INDEX 01 01:09:55
  TRACK 40 AUDIO
    TITLE "0:"
    INDEX 01 01:12:37
  TRACK 41 AUDIO
    TITLE "5:cjc173_3939"
    INDEX 01 01:12:55
  TRACK 42 AUDIO
    TITLE "0:"
    INDEX 01 01:17:58
  TRACK 43 AUDIO
    TITLE "3:cjc173_3940"
    INDEX 01 01:18:28
  TRACK 44 AUDIO
    TITLE "0:"
    INDEX 01 01:19:55
  TRACK 45 AUDIO
    TITLE "4:cjc173_3941"
    INDEX 01 01:20:01
  TRACK 46 AUDIO
    TITLE "0:"
    INDEX 01 01:22:24
  TRACK 47 AUDIO
    TITLE "5:cjc173_3942"
    INDEX 01 01:22:43
  TRACK 48 AUDIO
    TITLE "0:"
    INDEX 01 01:28:01
  TRACK 49 AUDIO
    TITLE "3:cjc173_3943"
    INDEX 01 01:28:46
  TRACK 50 AUDIO
    TITLE "0:"
    INDEX 01 01:29:51
  TRACK 51 AUDIO
    TITLE "4:cjc173_3944"
    INDEX 01 01:29:75
  TRACK 52 AUDIO
    TITLE "0:"
    INDEX 01 01:32:56
  TRACK 53 AUDIO
    TITLE "5:cjc173_3945"
    INDEX 01 01:32:75
  TRACK 54 AUDIO
    TITLE "0:"
    INDEX 01 01:37:65
  TRACK 55 AUDIO
    TITLE "3:cjc173_3946"
    INDEX 01 01:38:35
  TRACK 56 AUDIO
    TITLE "0:"
    INDEX 01 01:39:67
  TRACK 57 AUDIO
    TITLE "4:cjc173_3947"
    INDEX 01 01:40:14
  TRACK 58 AUDIO
    TITLE "0:"
    INDEX 01 01:42:70
  TRACK 59 AUDIO
    TITLE "5:cjc173_3948"
    INDEX 01 01:43:14
  TRACK 60 AUDIO
    TITLE "0:"
    INDEX 01 01:49:27
